<svg width="3000" height="3000" viewBox="0 0 3000 3000" fill="none" xmlns="http://www.w3.org/2000/svg">
<path d="M745 1193.3L1417.73 1829.77L1421.76 3000L745 2347.41V1193.3Z" fill="white"/>
<path d="M1421.76 3000L745 2347.41V1193.3L984.277 1419.86C984.277 1419.86 831.85 1801.38 1078.38 2258.65C1324.91 2715.92 1421.76 3000 1421.76 3000Z" fill="#F1F1F1"/>
<path d="M2255.81 1003.69L1583.08 1640.17L1579.06 2810.39L2255.81 2157.81V1003.69Z" fill="white"/>
<path d="M1579.06 2810.4L2255.81 2157.81V1003.7L1883.47 1356.86C1883.47 1356.86 2051.64 1670.61 2006.82 2043.63C1962 2416.64 1579.06 2810.4 1579.06 2810.4Z" fill="#F1F1F1"/>
<path d="M1125.65 0L1824.56 652.587V1120.77L1405.5 1532.42L1121.62 1256.83L1125.65 0Z" fill="#F1F1F1"/>
<path d="M1121.62 1256.83L1125.65 0C1170.06 451.73 1349.14 649.131 1606.79 946.8C1689.93 1042.85 1737.89 1122.09 1765.24 1178.29C1765.22 1178.24 1525.46 1414.41 1405.59 1532.5L1121.62 1256.83Z" fill="white"/>
</svg>
